<?xml version="1.0" standalone="no"?>
<!DOCTYPE svg PUBLIC "-//W3C//DTD SVG 20010904//EN"
 "http://www.w3.org/TR/2001/REC-SVG-20010904/DTD/svg10.dtd">
<svg version="1.0" xmlns="http://www.w3.org/2000/svg"
 width="418.000000pt" height="500.000000pt" viewBox="0 0 418.000000 500.000000"
 preserveAspectRatio="xMidYMid meet">

<g transform="translate(0.000000,500.000000) scale(0.100000,-0.100000)"
fill="#000000" stroke="none">
<path d="M1760 2994 l0 -1465 23 7 c59 18 339 142 477 212 l155 77 3 325 c2
179 0 772 -4 1318 l-6 992 -324 0 -324 0 0 -1466z"/>
<path d="M2540 3015 c0 -613 3 -1115 6 -1115 15 0 266 154 447 274 l197 131
-2 705 -3 704 -305 199 c-168 109 -313 202 -322 208 -17 9 -18 -46 -18 -1106z"/>
<path d="M1305 3205 l-320 -124 -3 -860 -2 -861 35 0 c122 0 332 37 518 92
l107 31 0 924 c0 507 -3 923 -7 922 -5 -1 -152 -56 -328 -124z"/>
<path d="M3856 2986 c-45 -82 -50 -88 -119 -125 -40 -22 -78 -44 -86 -49 -11
-6 8 -20 70 -54 83 -44 85 -46 133 -132 l49 -87 49 90 c27 50 52 91 56 91 4 0
42 20 84 43 l78 43 -86 44 -85 45 -48 88 -48 89 -47 -86z"/>
<path d="M3095 1814 c-116 -109 -355 -311 -467 -394 l-88 -64 0 -203 0 -203
325 0 325 0 0 475 c0 261 -1 475 -2 475 -2 -1 -43 -39 -93 -86z"/>
</g>
</svg>
